<mxfile host="app.diagrams.net" agent="Mozilla/5.0 (Windows NT 10.0; Win64; x64) AppleWebKit/537.36 (KHTML, like Gecko) Chrome/131.0.0.0 Safari/537.36 Edg/131.0.0.0" version="26.0.5">
  <diagram name="Page-1" id="Al0kaklTwmDGXAifcpCR">
    <mxGraphModel dx="1426" dy="791" grid="1" gridSize="10" guides="1" tooltips="1" connect="1" arrows="1" fold="1" page="1" pageScale="1" pageWidth="1700" pageHeight="1100" math="0" shadow="0">
      <root>
        <mxCell id="0" />
        <mxCell id="1" parent="0" />
        <mxCell id="sW5ts07jHBuVn0BteJkE-3" style="edgeStyle=orthogonalEdgeStyle;rounded=0;orthogonalLoop=1;jettySize=auto;html=1;" edge="1" parent="1" source="sW5ts07jHBuVn0BteJkE-1">
          <mxGeometry relative="1" as="geometry">
            <mxPoint x="550" y="270" as="targetPoint" />
          </mxGeometry>
        </mxCell>
        <mxCell id="sW5ts07jHBuVn0BteJkE-1" value="Start" style="rounded=1;whiteSpace=wrap;html=1;" vertex="1" parent="1">
          <mxGeometry x="490" y="120" width="120" height="60" as="geometry" />
        </mxCell>
        <mxCell id="sW5ts07jHBuVn0BteJkE-34" style="edgeStyle=orthogonalEdgeStyle;rounded=0;orthogonalLoop=1;jettySize=auto;html=1;exitX=0.5;exitY=1;exitDx=0;exitDy=0;entryX=0.5;entryY=0;entryDx=0;entryDy=0;" edge="1" parent="1" source="sW5ts07jHBuVn0BteJkE-30" target="sW5ts07jHBuVn0BteJkE-33">
          <mxGeometry relative="1" as="geometry" />
        </mxCell>
        <mxCell id="sW5ts07jHBuVn0BteJkE-30" value="Read MXRURO for Other Roles&lt;br&gt;(User Role Table)" style="rounded=1;whiteSpace=wrap;html=1;" vertex="1" parent="1">
          <mxGeometry x="460" y="270" width="210" height="80" as="geometry" />
        </mxCell>
        <mxCell id="sW5ts07jHBuVn0BteJkE-32" style="edgeStyle=orthogonalEdgeStyle;rounded=0;orthogonalLoop=1;jettySize=auto;html=1;entryX=1;entryY=0.5;entryDx=0;entryDy=0;" edge="1" parent="1" source="sW5ts07jHBuVn0BteJkE-31" target="sW5ts07jHBuVn0BteJkE-30">
          <mxGeometry relative="1" as="geometry" />
        </mxCell>
        <mxCell id="sW5ts07jHBuVn0BteJkE-31" value="&lt;div&gt;select count(*)&amp;nbsp; from mxruro_Rec where uro_lgn_id=&#39;&lt;b&gt;$Login_ID&lt;/b&gt; and uro_cmpy_id=&#39;&lt;b&gt;$Company_ID&lt;/b&gt;&#39; and ((uro_org_lvl=&#39;B&#39; and uro_org_fct in (&#39;BMG&#39;, &#39;SMG&#39;, &#39;CSR&#39;)) or (uro_org_lvl=&#39;C&#39; and uro_org_fct&lt;/div&gt;&lt;div&gt;in (&#39;ACM&#39;, &#39;AR &#39;, &#39;CEO&#39;, &#39;CFO&#39;)))&quot;,&lt;/div&gt;" style="shape=document;whiteSpace=wrap;html=1;boundedLbl=1;" vertex="1" parent="1">
          <mxGeometry x="780" y="240" width="450" height="140" as="geometry" />
        </mxCell>
        <mxCell id="sW5ts07jHBuVn0BteJkE-36" value="YES" style="edgeStyle=orthogonalEdgeStyle;rounded=0;orthogonalLoop=1;jettySize=auto;html=1;entryX=0;entryY=0.5;entryDx=0;entryDy=0;" edge="1" parent="1" source="sW5ts07jHBuVn0BteJkE-33" target="sW5ts07jHBuVn0BteJkE-35">
          <mxGeometry relative="1" as="geometry" />
        </mxCell>
        <mxCell id="sW5ts07jHBuVn0BteJkE-38" value="NO" style="edgeStyle=orthogonalEdgeStyle;rounded=0;orthogonalLoop=1;jettySize=auto;html=1;" edge="1" parent="1" source="sW5ts07jHBuVn0BteJkE-33" target="sW5ts07jHBuVn0BteJkE-37">
          <mxGeometry relative="1" as="geometry" />
        </mxCell>
        <mxCell id="sW5ts07jHBuVn0BteJkE-42" style="edgeStyle=orthogonalEdgeStyle;rounded=0;orthogonalLoop=1;jettySize=auto;html=1;" edge="1" parent="1" source="sW5ts07jHBuVn0BteJkE-33" target="sW5ts07jHBuVn0BteJkE-39">
          <mxGeometry relative="1" as="geometry" />
        </mxCell>
        <mxCell id="sW5ts07jHBuVn0BteJkE-33" value="Return Value &amp;gt; 0" style="rhombus;whiteSpace=wrap;html=1;" vertex="1" parent="1">
          <mxGeometry x="490" y="427.5" width="140" height="130" as="geometry" />
        </mxCell>
        <mxCell id="sW5ts07jHBuVn0BteJkE-35" value="User Has Other Roles = True" style="rounded=0;whiteSpace=wrap;html=1;" vertex="1" parent="1">
          <mxGeometry x="790" y="455" width="200" height="75" as="geometry" />
        </mxCell>
        <mxCell id="sW5ts07jHBuVn0BteJkE-37" value="User Has Other Roles = False" style="rounded=0;whiteSpace=wrap;html=1;" vertex="1" parent="1">
          <mxGeometry x="150" y="455" width="200" height="75" as="geometry" />
        </mxCell>
        <mxCell id="sW5ts07jHBuVn0BteJkE-48" style="edgeStyle=orthogonalEdgeStyle;rounded=0;orthogonalLoop=1;jettySize=auto;html=1;entryX=0.5;entryY=0;entryDx=0;entryDy=0;" edge="1" parent="1" source="sW5ts07jHBuVn0BteJkE-39" target="sW5ts07jHBuVn0BteJkE-47">
          <mxGeometry relative="1" as="geometry" />
        </mxCell>
        <mxCell id="sW5ts07jHBuVn0BteJkE-39" value="Read MXRURO for Sales Person Role&lt;br&gt;(User Role Table)" style="rounded=1;whiteSpace=wrap;html=1;" vertex="1" parent="1">
          <mxGeometry x="455" y="600" width="210" height="80" as="geometry" />
        </mxCell>
        <mxCell id="sW5ts07jHBuVn0BteJkE-40" value="select count(*)&amp;nbsp; from mxruro_Rec where uro_lgn_id=&#39;&lt;b&gt;$User_ID&lt;/b&gt;&#39; and uro_org_lvl=&#39;T&#39; and uro_cmpy_id=&#39;&lt;b&gt;$Company_ID&lt;/b&gt;&#39; and uro_org_fct in (&#39;OSP&#39;, &#39;ISP&#39;)" style="shape=document;whiteSpace=wrap;html=1;boundedLbl=1;" vertex="1" parent="1">
          <mxGeometry x="790" y="580" width="450" height="140" as="geometry" />
        </mxCell>
        <mxCell id="sW5ts07jHBuVn0BteJkE-41" style="edgeStyle=orthogonalEdgeStyle;rounded=0;orthogonalLoop=1;jettySize=auto;html=1;entryX=1;entryY=0.375;entryDx=0;entryDy=0;entryPerimeter=0;" edge="1" parent="1" source="sW5ts07jHBuVn0BteJkE-40" target="sW5ts07jHBuVn0BteJkE-39">
          <mxGeometry relative="1" as="geometry" />
        </mxCell>
        <mxCell id="sW5ts07jHBuVn0BteJkE-43" value="YES" style="edgeStyle=orthogonalEdgeStyle;rounded=0;orthogonalLoop=1;jettySize=auto;html=1;entryX=0;entryY=0.5;entryDx=0;entryDy=0;exitX=1;exitY=0.5;exitDx=0;exitDy=0;" edge="1" parent="1" target="sW5ts07jHBuVn0BteJkE-45" source="sW5ts07jHBuVn0BteJkE-47">
          <mxGeometry relative="1" as="geometry">
            <mxPoint x="640" y="808" as="sourcePoint" />
          </mxGeometry>
        </mxCell>
        <mxCell id="sW5ts07jHBuVn0BteJkE-44" value="NO" style="edgeStyle=orthogonalEdgeStyle;rounded=0;orthogonalLoop=1;jettySize=auto;html=1;exitX=0;exitY=0.5;exitDx=0;exitDy=0;" edge="1" parent="1" target="sW5ts07jHBuVn0BteJkE-46" source="sW5ts07jHBuVn0BteJkE-47">
          <mxGeometry relative="1" as="geometry">
            <mxPoint x="500" y="808" as="sourcePoint" />
          </mxGeometry>
        </mxCell>
        <mxCell id="sW5ts07jHBuVn0BteJkE-45" value="User is Salesperson = True" style="rounded=0;whiteSpace=wrap;html=1;" vertex="1" parent="1">
          <mxGeometry x="829" y="790" width="200" height="75" as="geometry" />
        </mxCell>
        <mxCell id="sW5ts07jHBuVn0BteJkE-46" value="&lt;br&gt;&lt;span style=&quot;color: rgb(0, 0, 0); font-family: Helvetica; font-size: 12px; font-style: normal; font-variant-ligatures: normal; font-variant-caps: normal; font-weight: 400; letter-spacing: normal; orphans: 2; text-align: center; text-indent: 0px; text-transform: none; widows: 2; word-spacing: 0px; -webkit-text-stroke-width: 0px; white-space: normal; background-color: rgb(251, 251, 251); text-decoration-thickness: initial; text-decoration-style: initial; text-decoration-color: initial; float: none; display: inline !important;&quot;&gt;User is Salesperson = False&lt;/span&gt;" style="rounded=0;whiteSpace=wrap;html=1;" vertex="1" parent="1">
          <mxGeometry x="120" y="780" width="200" height="75" as="geometry" />
        </mxCell>
        <mxCell id="sW5ts07jHBuVn0BteJkE-50" style="edgeStyle=orthogonalEdgeStyle;rounded=0;orthogonalLoop=1;jettySize=auto;html=1;exitX=0.5;exitY=1;exitDx=0;exitDy=0;" edge="1" parent="1" source="sW5ts07jHBuVn0BteJkE-47" target="sW5ts07jHBuVn0BteJkE-49">
          <mxGeometry relative="1" as="geometry" />
        </mxCell>
        <mxCell id="sW5ts07jHBuVn0BteJkE-47" value="Return Value &amp;gt; 0" style="rhombus;whiteSpace=wrap;html=1;" vertex="1" parent="1">
          <mxGeometry x="490" y="752.5" width="140" height="130" as="geometry" />
        </mxCell>
        <mxCell id="sW5ts07jHBuVn0BteJkE-49" value="Return" style="ellipse;whiteSpace=wrap;html=1;aspect=fixed;" vertex="1" parent="1">
          <mxGeometry x="520" y="1030" width="80" height="80" as="geometry" />
        </mxCell>
      </root>
    </mxGraphModel>
  </diagram>
</mxfile>
